<?xml version="1.0" encoding="utf-8"?>
<!-- Generator: Adobe Illustrator 22.0.0, SVG Export Plug-In . SVG Version: 6.00 Build 0)  -->
<svg version="1.1" id="Calque_1" xmlns="http://www.w3.org/2000/svg" xmlns:xlink="http://www.w3.org/1999/xlink" x="0px" y="0px"
	 viewBox="0 0 300 60" style="enable-background:new 0 0 300 60;" xml:space="preserve">
<style type="text/css">
	.st0{fill:#FFFFFF;}
</style>
<path class="st0" d="M167.3,38.4h-3.6V20.8h3.6V38.4z"/>
<path class="st0" d="M179.9,31.2h-5.5v7.2h-3.6V20.8h9.8v3h-6.2v4.5h5.5V31.2z"/>
<path class="st0" d="M194.6,28.7l2.7-7.9h3.9L196.4,32v6.4h-3.6V32l-4.7-11.2h3.9L194.6,28.7z"/>
<path class="st0" d="M215.3,31.2c0,2.4-0.6,4.2-1.7,5.5c-1.1,1.3-2.7,2-4.7,2c-2,0-3.5-0.6-4.7-1.9c-1.1-1.3-1.7-3.1-1.7-5.4v-3
	c0-2.4,0.6-4.3,1.7-5.7c1.1-1.4,2.7-2,4.7-2c2,0,3.5,0.7,4.6,2c1.1,1.3,1.7,3.2,1.7,5.6V31.2z M211.7,28.3c0-1.6-0.2-2.8-0.7-3.5
	c-0.5-0.8-1.2-1.2-2.1-1.2c-0.9,0-1.6,0.4-2.1,1.1c-0.5,0.7-0.7,1.9-0.7,3.4v3.1c0,1.5,0.2,2.7,0.7,3.4c0.5,0.7,1.2,1.1,2.1,1.1
	c0.9,0,1.6-0.4,2.1-1.1c0.5-0.7,0.7-1.8,0.7-3.3V28.3z"/>
<path class="st0" d="M229.8,20.8V33c0,1.8-0.5,3.2-1.5,4.2c-1,1-2.4,1.5-4.3,1.5c-1.9,0-3.3-0.5-4.3-1.5c-1-1-1.5-2.4-1.5-4.3V20.8
	h3.6v12.1c0,1,0.2,1.7,0.5,2.1c0.3,0.4,0.9,0.6,1.8,0.6c0.8,0,1.4-0.2,1.7-0.6c0.3-0.4,0.5-1.1,0.5-2.1V20.8H229.8z"/>
<path class="st0" d="M251.2,32.6c-0.1,2-0.7,3.5-1.7,4.6c-1,1-2.5,1.5-4.4,1.5c-2,0-3.5-0.7-4.6-2c-1.1-1.3-1.6-3.2-1.6-5.6v-3
	c0-2.4,0.5-4.3,1.6-5.6c1.1-1.3,2.6-2,4.6-2c1.9,0,3.4,0.5,4.4,1.6c1,1.1,1.6,2.6,1.7,4.6h-3.6c0-1.2-0.2-2.1-0.6-2.6
	c-0.4-0.5-1-0.7-1.9-0.7c-1,0-1.6,0.3-2,1c-0.4,0.7-0.6,1.8-0.6,3.3v3.3c0,1.8,0.2,3,0.6,3.6c0.4,0.7,1.1,1,2,1
	c0.9,0,1.6-0.2,1.9-0.7c0.4-0.5,0.6-1.3,0.6-2.5H251.2z"/>
<path class="st0" d="M262.3,34.8h-4.9l-0.9,3.6h-3.8l5.5-17.6h3.3l5.5,17.6h-3.8L262.3,34.8z M258.2,31.9h3.3l-1.6-6.3L258.2,31.9z"
	/>
<path class="st0" d="M281.5,38.4h-3.6l-5.2-11.6v11.6h-3.6V20.8h3.6l5.2,11.6V20.8h3.5V38.4z"/>
<polygon class="st0" points="71,32.2 76.8,32.2 73.9,22.8 "/>
<path class="st0" d="M87.4,22.1h-2.7v15h2.7c1.6,0,2.8-0.5,3.7-1.5c0.9-1,1.3-2.4,1.3-4.2v-3.7c0-1.8-0.4-3.2-1.3-4.2
	C90.2,22.6,89,22.1,87.4,22.1z"/>
<path class="st0" d="M159.6,29.8l-45-26v10.4H18.5v31.2h96.1v10.4L159.6,29.8z M123,20.8h9.2v1.3h-7.8v6.6h6.8V30h-6.8v7.2h7.9v1.3
	H123V20.8z M52.7,38.4h-1.5l-3.5-7.3h-4.1v7.3h-1.4V20.8H47c1.6,0,2.9,0.5,3.7,1.4c0.9,0.9,1.3,2.2,1.3,3.8c0,1.1-0.3,2.1-0.8,3
	c-0.5,0.9-1.3,1.5-2.2,1.8l3.7,7.5V38.4z M65.6,38.4h-9.2V20.8h9.2v1.3h-7.8v6.6h6.8V30h-6.8v7.2h7.9V38.4z M78.7,38.4l-1.5-4.9
	h-6.6l-1.5,4.9h-1.4l5.6-17.6h1.3l5.6,17.6H78.7z M93.7,31.4c0,2.2-0.6,3.9-1.7,5.2c-1.1,1.2-2.7,1.9-4.7,1.9h-4V20.8h4.2
	c1.9,0,3.4,0.6,4.5,1.8c1.1,1.2,1.7,2.9,1.7,5.1V31.4z M111.6,38.4h-1.1l-5.4-15.3l0.1,7.6v7.7h-1.4V20.8h1.8l5.3,15.5l5.4-15.5h1.8
	v17.6h-1.4v-7.6l0.1-7.7L111.6,38.4z"/>
<path class="st0" d="M50.7,26c0-1.2-0.3-2.2-1-2.9c-0.6-0.7-1.5-1-2.7-1h-3.4v7.7h3.7c1,0,1.9-0.4,2.5-1.1
	C50.4,28,50.7,27.1,50.7,26z"/>
</svg>
